<svg width="12" height="11" viewBox="0 0 12 11" fill="none" xmlns="http://www.w3.org/2000/svg">
<g clip-path="url(#clip0)">
<path d="M5.42641 5.46315L0.11491 10.332C-0.0326524 10.4673 -0.0326524 10.6864 0.11491 10.8217C0.188598 10.8894 0.285348 10.9231 0.38191 10.9231C0.47866 10.9231 0.575223 10.8894 0.64891 10.8217L6.00035 5.91621L11.3518 10.8217C11.4257 10.8894 11.5222 10.9231 11.6188 10.9231C11.7154 10.9231 11.8121 10.8894 11.8858 10.8217C12.0333 10.6864 12.0333 10.4673 11.8858 10.332L6.57447 5.46315L11.8893 0.59084C12.0369 0.455574 12.0369 0.236433 11.8893 0.101168C11.7418 -0.033926 11.5027 -0.033926 11.3554 0.101168L6.00054 5.01009L0.64516 0.10134C0.497598 -0.0337542 0.258723 -0.0337542 0.11116 0.10134C-0.0364023 0.236605 -0.0364023 0.455746 0.11116 0.591011L5.42641 5.46315Z" fill="#494949"/>
</g>
<defs>
<clipPath id="clip0">
<rect width="12" height="11" fill="white"/>
</clipPath>
</defs>
</svg>
